<svg width="426" height="208" viewBox="0 0 426 208" fill="none" xmlns="http://www.w3.org/2000/svg">
<rect width="426" height="208" rx="8" fill="white"/>
<path d="M62.864 87.552C71.184 87.552 78.096 89.664 83.6 93.888C89.104 98.112 92.816 103.84 94.736 111.072H83.12C81.52 106.976 78.96 103.744 75.44 101.376C71.984 98.944 67.728 97.728 62.672 97.728C58.64 97.728 55.024 98.72 51.824 100.704C48.688 102.688 46.192 105.536 44.336 109.248C42.544 112.896 41.648 117.184 41.648 122.112C41.648 126.976 42.544 131.264 44.336 134.976C46.192 138.624 48.688 141.44 51.824 143.424C55.024 145.408 58.64 146.4 62.672 146.4C67.728 146.4 71.984 145.216 75.44 142.848C78.96 140.416 81.52 137.184 83.12 133.152H94.736C92.816 140.384 89.104 146.112 83.6 150.336C78.096 154.496 71.184 156.576 62.864 156.576C56.464 156.576 50.8 155.136 45.872 152.256C40.944 149.312 37.136 145.248 34.448 140.064C31.76 134.816 30.416 128.832 30.416 122.112C30.416 115.392 31.76 109.44 34.448 104.256C37.136 99.008 40.944 94.912 45.872 91.968C50.8 89.024 56.464 87.552 62.864 87.552ZM154.807 127.008C154.807 128.8 154.679 130.368 154.423 131.712H113.719C113.911 137.152 115.415 141.184 118.231 143.808C121.047 146.432 124.535 147.744 128.695 147.744C132.343 147.744 135.415 146.816 137.911 144.96C140.471 143.104 142.039 140.64 142.615 137.568H154.327C153.623 141.28 152.151 144.576 149.911 147.456C147.671 150.336 144.759 152.608 141.175 154.272C137.591 155.872 133.591 156.672 129.175 156.672C124.055 156.672 119.511 155.584 115.543 153.408C111.639 151.232 108.567 148.096 106.327 144C104.087 139.904 102.967 135.072 102.967 129.504C102.967 124 104.087 119.2 106.327 115.104C108.567 111.008 111.639 107.872 115.543 105.696C119.511 103.52 124.055 102.432 129.175 102.432C134.359 102.432 138.871 103.52 142.711 105.696C146.615 107.808 149.591 110.752 151.639 114.528C153.751 118.24 154.807 122.4 154.807 127.008ZM143.767 126.72C143.895 123.264 143.287 120.384 141.943 118.08C140.663 115.712 138.871 113.984 136.567 112.896C134.327 111.744 131.863 111.168 129.175 111.168C124.887 111.168 121.303 112.48 118.423 115.104C115.543 117.728 113.975 121.6 113.719 126.72H143.767ZM176.318 84.96V156H165.374V84.96H176.318ZM238.714 127.008C238.714 128.8 238.586 130.368 238.33 131.712H197.626C197.818 137.152 199.322 141.184 202.138 143.808C204.954 146.432 208.442 147.744 212.602 147.744C216.25 147.744 219.322 146.816 221.818 144.96C224.378 143.104 225.946 140.64 226.522 137.568H238.234C237.53 141.28 236.058 144.576 233.818 147.456C231.578 150.336 228.666 152.608 225.082 154.272C221.498 155.872 217.498 156.672 213.082 156.672C207.962 156.672 203.418 155.584 199.45 153.408C195.546 151.232 192.474 148.096 190.234 144C187.994 139.904 186.874 135.072 186.874 129.504C186.874 124 187.994 119.2 190.234 115.104C192.474 111.008 195.546 107.872 199.45 105.696C203.418 103.52 207.962 102.432 213.082 102.432C218.266 102.432 222.778 103.52 226.618 105.696C230.522 107.808 233.498 110.752 235.546 114.528C237.658 118.24 238.714 122.4 238.714 127.008ZM227.674 126.72C227.802 123.264 227.194 120.384 225.85 118.08C224.57 115.712 222.778 113.984 220.474 112.896C218.234 111.744 215.77 111.168 213.082 111.168C208.794 111.168 205.21 112.48 202.33 115.104C199.45 117.728 197.882 121.6 197.626 126.72H227.674ZM260.224 113.472C262.016 110.016 264.576 107.296 267.904 105.312C271.232 103.264 275.072 102.24 279.424 102.24V114.144H276.16C271.36 114.144 267.488 115.328 264.544 117.696C261.664 120 260.224 123.84 260.224 129.216V156H249.28V103.104H260.224V113.472ZM286.088 87.744C286.088 85.888 286.728 84.352 288.008 83.136C289.288 81.92 290.984 81.312 293.096 81.312C295.208 81.312 296.904 81.92 298.184 83.136C299.528 84.352 300.2 85.888 300.2 87.744C300.2 89.6 299.528 91.104 298.184 92.256C296.904 93.408 295.208 93.984 293.096 93.984C290.984 93.984 289.288 93.408 288.008 92.256C286.728 91.104 286.088 89.6 286.088 87.744ZM298.568 103.104V156H287.624V103.104H298.568ZM338.404 146.496V156H331.684C326.052 156 321.764 154.656 318.82 151.968C315.94 149.216 314.5 144.672 314.5 138.336V112.416H306.916V103.104H314.5V89.952H325.54V103.104H338.308V112.416H325.54V138.528C325.54 141.536 326.084 143.616 327.172 144.768C328.324 145.92 330.308 146.496 333.124 146.496H338.404ZM354.895 103.104L370.735 141.984L385.423 103.104H397.615L365.647 181.152H353.455L364.879 154.752L342.607 103.104H354.895Z" fill="black"/>
<path fill-rule="evenodd" clip-rule="evenodd" d="M247.762 30.6335C256.691 31.4015 260.794 28.3293 268.73 28.6004C269.091 28.7359 271.3 26.4317 271.661 26.4317C272.698 26.5672 272.563 28.8714 273.6 29.2329C278.966 30.769 283.565 32.8021 283.295 36.9135C284.196 38.7207 285.098 40.4828 286 42.29C285.594 42.6514 285.369 43.0581 284.963 43.4647C284.467 45.2719 283.565 45.7689 282.799 45.4074C282.167 45.1363 280.634 44.2327 281.626 42.6062C282.889 40.302 282.257 38.4948 281.13 36.8232C280.499 36.5521 279.462 36.4165 278.695 36.5521C279.732 37.0491 279.326 37.9527 280.634 37.9527C283.069 39.4888 279.732 42.29 280.905 44.5942C279.868 44.3231 279.101 44.4586 278.334 44.5942C279.597 44.8653 280.905 45.2267 281.807 46.2659C280.273 48.57 278.109 47.0339 275.945 45.3622C273.645 45.0912 271.21 45.3622 270.083 43.4195C268.91 41.6123 268.685 39.8503 270.218 38.043C268.955 36.6425 268.189 34.9708 268.55 33.1636C267.648 34.8352 267.648 36.5069 269.046 38.1786C267.648 40.4828 268.279 42.5159 269.406 44.7297C262.372 43.4647 255.338 53.811 249.972 56.2507C249.431 55.3471 245.598 33.2087 247.762 30.6335Z" fill="black"/>
<path fill-rule="evenodd" clip-rule="evenodd" d="M239.465 77.1239C238.428 71.3408 229.004 75.7233 222.195 69.1721C219.4 58.2837 232.657 46.7627 213.763 36.6424C223.232 38.9465 227.561 44.9555 226.028 55.0759C229.5 51.7326 231.89 47.5308 236.399 44.9555C231.8 50.0609 229.771 56.2054 223.503 60.4524C222.872 62.7565 222.105 66.7324 223.368 68.7655C230.763 61.356 241.765 60.5879 250.603 55.9795C249.972 48.0278 249.34 38.6755 248.664 30.7689C231.169 31.6725 203.798 15.9046 191.398 36.2809C190.631 46.2658 195.095 52.6814 206.368 54.5789C213.899 57.0187 214.8 63.5246 213.673 71.4763C219.535 73.9161 225.307 76.3558 231.078 78.7955C234.866 79.5636 237.301 78.5244 239.465 77.1239Z" fill="black"/>
<path fill-rule="evenodd" clip-rule="evenodd" d="M192.931 77.892C195.727 79.4282 197.936 78.7956 199.199 76.0848C204.069 75.3167 208.533 74.1421 212.636 71.8379C213.042 69.1271 213.132 66.7325 212.907 64.5187C209.074 67.4554 204.339 69.7596 199.244 70.3921C197.17 72.9222 195.005 75.4523 192.931 77.892Z" fill="black"/>
<path d="M233.813 37.5091C223.081 37.1025 207.574 31.3646 193.506 37.5091C187.103 40.3103 180.835 43.1566 174.973 45.1897C161.806 49.9337 152.608 48.5331 146.971 44.5572C144.401 42.6145 142.642 40.2199 141.47 37.6446C140.298 35.0694 139.802 32.2682 140.072 29.467C140.343 23.1869 143.77 17.178 149.677 14.3768C151.616 13.4732 153.915 14.2412 154.772 16.184C155.674 17.9912 154.772 20.2954 152.968 21.199C149.632 22.7351 147.738 26.3044 147.602 29.9188C147.467 31.5905 147.738 33.2621 148.369 34.6627C149 36.1989 150.037 37.4639 151.435 38.5031C155.133 41.2139 161.896 41.9819 172.403 38.232C177.904 36.1989 184.036 33.488 190.439 30.6869C205.274 24.1357 221.413 29.6477 233.813 29.7833V37.5091Z" fill="black"/>
</svg>
